<svg width="69" height="34" viewBox="0 0 69 34" fill="none" xmlns="http://www.w3.org/2000/svg">
<path d="M58.5675 10.0188H53.1105V23.9059H58.5675V10.0188Z" fill="white"/>
<path d="M41.0487 10.0188L46.2422 23.9059L49.2718 17.1317L46.5057 10.0188H41.0487Z" fill="white"/>
<path d="M12.7664 10L14.1589 14.1022L15.4761 10H17.3202V15.9651H16.0971V11.7312L14.6293 15.9462H13.6132L12.1643 11.7688V15.9462H10.9223V10H12.7664Z" fill="white"/>
<path d="M22.9465 10V11.1102H19.804V12.3898H22.6831V13.4059H19.804V14.8737H23.0218V15.9839H18.5057V10H22.9653H22.9465Z" fill="white"/>
<path d="M26.4841 10C26.8605 10 27.218 10.0565 27.5567 10.1882C27.8954 10.3199 28.1777 10.4892 28.4223 10.7339C28.6669 10.9785 28.8551 11.2796 28.9868 11.6559C29.1186 12.0323 29.1938 12.4462 29.1938 12.9543C29.1938 13.3871 29.1374 13.7823 29.0245 14.1586C28.9116 14.5349 28.7422 14.836 28.5164 15.1183C28.2906 15.3817 28.0083 15.5887 27.6696 15.7392C27.3309 15.8898 26.9358 15.9651 26.4841 15.9651H23.9062V10H26.4841ZM26.3901 14.8548C26.5782 14.8548 26.7664 14.8172 26.9358 14.7608C27.1051 14.7043 27.2745 14.5914 27.4062 14.4597C27.5379 14.3091 27.6508 14.1398 27.7449 13.914C27.8202 13.6882 27.8766 13.4059 27.8766 13.086C27.8766 12.7849 27.839 12.5215 27.7825 12.2769C27.7261 12.0323 27.632 11.8253 27.5003 11.6559C27.3686 11.4866 27.1992 11.3548 26.9734 11.2608C26.7476 11.1667 26.4841 11.129 26.1643 11.129H25.2234V14.8925H26.3901V14.8548Z" fill="white"/>
<path d="M31.3954 10V15.9651H30.0782V10H31.3954Z" fill="white"/>
<path d="M35.5164 10L37.7368 15.9651H36.382L35.9304 14.629H33.71L33.2395 15.9651H31.9223L34.1804 10H35.5164ZM35.5917 13.6505L34.839 11.4677L34.0675 13.6505H35.6105H35.5917Z" fill="white"/>
<path d="M21.1024 17.9409L23.3229 23.9059H21.968L21.5164 22.5699H19.296L18.8255 23.9059H17.5083L19.7664 17.9409H21.1024ZM21.1777 21.5914L20.425 19.4086L19.6535 21.5914H21.1965H21.1777Z" fill="white"/>
<path d="M27.0487 17.9409C27.3121 17.9409 27.5567 17.9785 27.7637 18.0726C27.9707 18.1667 28.1589 18.2796 28.3094 18.4301C28.46 18.5806 28.5729 18.75 28.6669 18.957C28.7422 19.1452 28.7798 19.371 28.7798 19.5968C28.7798 19.9543 28.7046 20.2554 28.554 20.5C28.4035 20.7634 28.1589 20.9516 27.839 21.0833C28.0083 21.1398 28.1401 21.2151 28.2341 21.3091C28.3471 21.4032 28.4223 21.5161 28.4976 21.629C28.5729 21.7608 28.6105 21.8925 28.6481 22.043C28.6858 22.1935 28.7046 22.3441 28.7046 22.4946C28.7046 22.5887 28.7046 22.7016 28.7046 22.8333C28.7046 22.9651 28.7046 23.0968 28.7422 23.2285C28.7422 23.3602 28.7798 23.4919 28.8175 23.6048C28.8551 23.7177 28.8927 23.8306 28.9492 23.9059H27.632C27.5567 23.7177 27.5191 23.4919 27.5003 23.2285C27.5003 22.9651 27.4626 22.7204 27.425 22.4758C27.3874 22.1559 27.2933 21.9301 27.1427 21.7984C26.9922 21.6478 26.7664 21.5726 26.4277 21.5726H25.1105V23.9059H23.7933V17.9409H27.0487ZM26.5782 20.6317C26.8793 20.6317 27.1051 20.5565 27.2557 20.4247C27.4062 20.293 27.4815 20.0672 27.4815 19.7661C27.4815 19.4651 27.4062 19.2581 27.2557 19.1452C27.1051 19.0134 26.8793 18.957 26.5782 18.957H25.1481V20.6317H26.5782Z" fill="white"/>
<path d="M29.2503 19.0511V17.9409H34.1239V19.0511H32.3363V23.9059H31.0191V19.0511H29.2315H29.2503Z" fill="white"/>
<path d="M14.761 23.9059C14.6293 23.7742 14.5164 23.6425 14.3659 23.4919C13.9895 23.793 13.4438 24 12.7664 24C11.3363 24 10.7153 23.1532 10.7153 22.3441C10.7153 21.5726 11.1481 21.0081 11.8255 20.6505V20.6129C11.5809 20.3306 11.3739 19.8978 11.3739 19.4839C11.3739 18.7312 11.9573 17.9409 13.1428 17.9409C14.046 17.9409 14.7234 18.4677 14.7234 19.3145C14.7234 19.9167 14.3659 20.4059 13.5567 20.8199V20.8575C13.8766 21.2339 14.253 21.6667 14.5352 21.9489C14.7798 21.5726 14.9492 21.0457 15.0433 20.5188H16.2288C16.0782 21.4032 15.7772 22.1747 15.2503 22.7392C15.589 23.1156 15.9277 23.5108 16.2852 23.8871H14.7422L14.761 23.9059ZM13.7449 22.7392C13.3874 22.3817 12.8981 21.836 12.4277 21.3091C12.1831 21.4785 11.9573 21.7419 11.9573 22.1183C11.9573 22.6263 12.3336 23.0403 12.9358 23.0403C13.2745 23.0403 13.5567 22.9086 13.7449 22.7392ZM12.5594 19.371C12.5594 19.672 12.6911 19.9355 12.9546 20.2177C13.3874 19.9355 13.5944 19.6909 13.5944 19.3521C13.5944 19.0699 13.425 18.7688 13.0863 18.7688C12.7476 18.7688 12.5594 19.0511 12.5594 19.371Z" fill="white"/>
</svg>
