<svg width="76" height="36" viewBox="0 0 76 36" fill="none" xmlns="http://www.w3.org/2000/svg">
<path d="M11.1052 10.498L10.7588 11.6671H10.499L10.0877 10.0217H10.3691L10.6506 11.1042L10.9753 10.0217H11.2352L11.5599 11.1042L11.8414 10.0217H12.1228L11.7115 11.6671H11.4517L11.1052 10.498Z" fill="white"/>
<path d="M13.5301 10.0217V10.2598H12.6425V10.6928H13.4652V10.931H12.6425V11.429H13.5518V11.6671H12.361V10.0217H13.5301Z" fill="white"/>
<path d="M14.7209 10.0217L15.1756 11.2991L15.6519 10.0217H15.955V11.6671H15.6736V10.5846L15.3055 11.6671H15.0674L14.6776 10.5846V11.6671H14.3962V10.0217H14.7209Z" fill="white"/>
<path d="M17.1675 10.0217L17.7737 11.6671H17.4923L17.3191 11.1908H16.7345C16.7345 11.1908 16.6695 11.3424 16.6479 11.429C16.6262 11.5156 16.5829 11.5805 16.5613 11.6671H16.2798L16.886 10.0217H17.2108H17.1675ZM17.0159 10.3681L16.7994 10.9526H17.2108L16.9943 10.3681H17.0159Z" fill="white"/>
<path d="M18.3366 10.0217V10.7361L19.0511 10.0217H19.3975L18.7264 10.6712L19.3975 11.6455H19.0728L18.5315 10.866L18.315 11.0825V11.6455H18.0335V10H18.315L18.3366 10.0217Z" fill="white"/>
<path d="M20.8048 10.0217V10.2598H19.9172V10.6928H20.7399V10.931H19.9172V11.429H20.8265V11.6671H19.6357V10.0217H20.8048Z" fill="white"/>
<path d="M21.6925 10.0217H22.3204C22.4287 10.0217 22.5369 10.0217 22.6235 10.0866C22.7101 10.1299 22.7967 10.1949 22.8617 10.2598C22.9266 10.3248 22.9699 10.4114 23.0132 10.5196C23.0565 10.6279 23.0565 10.7145 23.0565 10.8444C23.0565 10.9743 23.0565 11.0609 23.0132 11.1691C22.9699 11.2774 22.9266 11.364 22.8617 11.429C22.7967 11.4939 22.7318 11.5589 22.6235 11.6022C22.5369 11.6455 22.4287 11.6671 22.3204 11.6671H21.6925V10.0217ZM21.974 11.429H22.2771C22.2771 11.429 22.4287 11.429 22.4936 11.3857C22.5586 11.364 22.6019 11.3207 22.6668 11.2774C22.7101 11.2341 22.7534 11.1691 22.7751 11.1042C22.7967 11.0392 22.8184 10.9526 22.8184 10.866C22.8184 10.7578 22.8184 10.6712 22.7751 10.6062C22.7318 10.5413 22.7101 10.4763 22.6668 10.433C22.6235 10.3897 22.5586 10.3464 22.4936 10.3248C22.4287 10.3031 22.3637 10.2815 22.2988 10.2815H21.9956V11.4506L21.974 11.429Z" fill="white"/>
<path d="M24.5721 10.498C24.5721 10.498 24.5721 10.6279 24.5071 10.6928C24.4638 10.7578 24.4205 10.8011 24.3339 10.866C24.3772 10.866 24.3989 10.8877 24.4205 10.9093C24.4422 10.931 24.4638 10.9526 24.4855 10.9959C24.4855 11.0176 24.5071 11.0609 24.5288 11.0825C24.5288 11.1258 24.5288 11.1475 24.5288 11.1908V11.429C24.5288 11.429 24.5288 11.4939 24.5504 11.5372C24.5721 11.5805 24.5937 11.6238 24.6154 11.6671H24.3123C24.3123 11.6671 24.3123 11.6238 24.2906 11.6022C24.2906 11.6022 24.2906 11.5589 24.2906 11.5372C24.2906 11.5372 24.2906 11.4939 24.2906 11.4723C24.2906 11.4723 24.2906 11.4506 24.2906 11.429V11.1908C24.2906 11.1908 24.2906 11.1475 24.2906 11.1258C24.2906 11.1042 24.2906 11.0825 24.2473 11.0609C24.2473 11.0609 24.204 11.0176 24.1824 11.0176C24.1607 11.0176 24.1174 11.0176 24.0741 11.0176H23.6628V11.6888H23.3813V10.0433H24.0741C24.0741 10.0433 24.2257 10.0433 24.2906 10.0866C24.3556 10.1083 24.4205 10.1516 24.4638 10.1949C24.5071 10.2382 24.5504 10.2815 24.5721 10.3464C24.5937 10.4114 24.6154 10.4547 24.6154 10.5196L24.5721 10.498ZM23.6195 10.7578H24.0308C24.0308 10.7578 24.0958 10.7578 24.1174 10.7578C24.1391 10.7578 24.1824 10.7361 24.204 10.7145C24.2257 10.7145 24.2473 10.6712 24.269 10.6279C24.2906 10.5846 24.269 10.5629 24.269 10.5196C24.269 10.4763 24.269 10.4547 24.269 10.4114C24.269 10.3897 24.2473 10.3464 24.2257 10.3248C24.204 10.3031 24.1824 10.2815 24.1391 10.2815C24.1174 10.2815 24.0741 10.2815 24.0308 10.2815H23.6195V10.7794V10.7578Z" fill="white"/>
<path d="M26.1093 10.0217V10.2598H25.2216V10.6928H26.0444V10.931H25.2216V11.429H26.131V11.6671H24.9402V10.0217H26.1093Z" fill="white"/>
<path d="M27.2785 10.0217L27.8847 11.6671H27.6032L27.43 11.1908H26.8454C26.8454 11.1908 26.7805 11.3424 26.7588 11.429C26.7372 11.5156 26.6939 11.5805 26.6722 11.6671H26.3908L26.997 10.0217H27.3218H27.2785ZM27.1269 10.3681L26.9104 10.9526H27.3218L27.1052 10.3681H27.1269Z" fill="white"/>
<path d="M28.4909 10.0217L28.9456 11.2991L29.4219 10.0217H29.725V11.6671H29.4435V10.5846L29.0755 11.6671H28.8373L28.4476 10.5846V11.6671H28.1661V10.0217H28.4909Z" fill="white"/>
<path d="M43.3218 24.8092L42.9753 25.9783H42.7155L42.3042 24.3329H42.5856L42.8671 25.4154L43.1918 24.3329H43.4517L43.7764 25.4154L44.0579 24.3329H44.3393L43.928 25.9783H43.6682L43.3218 24.8092Z" fill="white"/>
<path d="M45.7467 24.3329V24.571H44.859V25.0041H45.6817V25.2422H44.859V25.7402H45.7683V25.9783H44.5775V24.3329H45.7467Z" fill="white"/>
<path d="M46.9375 24.3329L47.3921 25.6103L47.8684 24.3329H48.1716V25.9783H47.8901V24.8958L47.522 25.9783H47.2839L46.8941 24.8958V25.9783H46.6127V24.3329H46.9375Z" fill="white"/>
<path d="M49.384 24.3329L49.9902 25.9783H49.7088L49.5356 25.502H48.951C48.951 25.502 48.886 25.6536 48.8644 25.7402C48.8427 25.8268 48.7994 25.8917 48.7778 25.9783H48.4963L49.1025 24.3329H49.4273H49.384ZM49.2324 24.6793L49.0159 25.2639H49.4273L49.2108 24.6793H49.2324Z" fill="white"/>
<path d="M50.5531 24.3329V25.0474L51.2676 24.3329H51.614L50.9429 24.9824L51.614 25.9567H51.2893L50.748 25.1773L50.5315 25.3938V25.9567H50.25V24.3112H50.5315L50.5531 24.3329Z" fill="white"/>
<path d="M53.0213 24.3329V24.571H52.1337V25.0041H52.9564V25.2422H52.1337V25.7402H53.043V25.9783H51.8522V24.3329H53.0213Z" fill="white"/>
<path d="M53.909 24.3329H54.5369C54.6452 24.3329 54.7534 24.3329 54.84 24.3978C54.9266 24.4411 55.0132 24.5061 55.0782 24.571C55.1431 24.636 55.1864 24.7226 55.2297 24.8309C55.273 24.9391 55.273 25.0257 55.273 25.1556C55.273 25.2855 55.273 25.3721 55.2297 25.4804C55.1864 25.5886 55.1431 25.6752 55.0782 25.7402C55.0132 25.8051 54.9483 25.8701 54.84 25.9134C54.7534 25.9567 54.6452 25.9783 54.5369 25.9783H53.909V24.3329ZM54.1905 25.7402H54.4936C54.4936 25.7402 54.6452 25.7402 54.7101 25.6969C54.7751 25.6752 54.8184 25.6319 54.8833 25.5886C54.9266 25.5453 54.9699 25.4804 54.9916 25.4154C55.0132 25.3505 55.0349 25.2639 55.0349 25.1773C55.0349 25.069 55.0349 24.9824 54.9916 24.9175C54.9699 24.8525 54.9266 24.7876 54.8833 24.7442C54.84 24.7009 54.7751 24.6576 54.7101 24.636C54.6452 24.6143 54.5802 24.5927 54.5153 24.5927H54.2121V25.7618L54.1905 25.7402Z" fill="white"/>
<path d="M56.8103 24.8092C56.8103 24.8092 56.8102 24.9391 56.7453 25.0041C56.702 25.069 56.6587 25.1123 56.5721 25.1773C56.6154 25.1773 56.637 25.1989 56.6587 25.2206C56.6803 25.2422 56.702 25.2639 56.7236 25.3072C56.7236 25.3288 56.7453 25.3721 56.7669 25.3938C56.7669 25.4371 56.7669 25.4587 56.7669 25.502V25.7402C56.7669 25.7402 56.7669 25.8051 56.7886 25.8484C56.7886 25.8917 56.8319 25.935 56.8535 25.9783H56.5504C56.5504 25.9783 56.5504 25.935 56.5288 25.9134C56.5288 25.9134 56.5288 25.8701 56.5288 25.8484C56.5288 25.8484 56.5288 25.8051 56.5288 25.7835C56.5288 25.7835 56.5288 25.7618 56.5288 25.7402V25.502C56.5288 25.502 56.5288 25.4587 56.5288 25.4371C56.5288 25.4154 56.5288 25.3938 56.4855 25.3721C56.4855 25.3721 56.4422 25.3288 56.4205 25.3288C56.3989 25.3288 56.3556 25.3288 56.3123 25.3288H55.9009V26H55.6194V24.3545H56.3123C56.3123 24.3545 56.4638 24.3545 56.5288 24.3978C56.5937 24.4195 56.6587 24.4628 56.702 24.5061C56.7453 24.5494 56.7886 24.5927 56.8103 24.6576C56.8319 24.7226 56.8535 24.7659 56.8535 24.8309L56.8103 24.8092ZM55.8576 25.069H56.269C56.269 25.069 56.3339 25.069 56.3556 25.069C56.3772 25.069 56.4205 25.0474 56.4422 25.0257C56.4638 25.0257 56.4855 24.9824 56.5071 24.9391C56.5071 24.9175 56.5071 24.8742 56.5071 24.8309C56.5071 24.7876 56.5071 24.7659 56.5071 24.7226C56.5071 24.7009 56.4855 24.6576 56.4638 24.636C56.4422 24.6143 56.4205 24.5927 56.3772 24.5927C56.3556 24.5927 56.3123 24.5927 56.269 24.5927H55.8576V25.0907V25.069Z" fill="white"/>
<path d="M58.001 24.3329L58.6073 25.9783H58.3258L58.1526 25.502H57.568C57.568 25.502 57.5031 25.6536 57.4814 25.7402C57.4598 25.8268 57.4165 25.8917 57.3948 25.9783H57.1134L57.7196 24.3329H58.0443H58.001ZM57.8495 24.6793L57.633 25.2639H58.0443L57.8278 24.6793H57.8495Z" fill="white"/>
<path d="M59.1918 24.3329L59.6465 25.6103L60.1228 24.3329H60.4259V25.9783H60.1445V24.8958L59.7764 25.9783H59.5383L59.1485 24.8958V25.9783H58.8671V24.3329H59.1918Z" fill="white"/>
<path d="M61.6384 24.3329L62.2446 25.9783H61.9632L61.79 25.502H61.2054C61.2054 25.502 61.1404 25.6536 61.1188 25.7402C61.0971 25.8268 61.0538 25.8917 61.0322 25.9783H60.7507L61.3569 24.3329H61.6817H61.6384ZM61.4868 24.6793L61.2703 25.2639H61.6817L61.4652 24.6793H61.4868Z" fill="white"/>
<path d="M64.951 15.456C64.951 15.456 64.7345 15.3911 64.6262 15.456L62.9158 16.3004C62.8075 16.3654 62.7209 16.4736 62.7209 16.6035V18.8552C62.7209 18.9635 62.7859 19.0934 62.8941 19.1367L64.6046 20.1543C64.6046 20.1543 64.7128 20.1976 64.7778 20.1976C64.8427 20.1976 64.886 20.1976 64.951 20.1543C65.0592 20.0893 65.1242 19.9811 65.1242 19.8728V15.7808C65.1242 15.6725 65.0592 15.5643 64.9726 15.4993L64.951 15.456Z" fill="white"/>
<path d="M17.6222 21.1286L16.0633 15.3911L14.5044 21.1286C14.3745 21.5616 14.2879 21.8863 14.223 22.0595C14.158 22.2544 14.0281 22.4276 13.8549 22.5792C13.6817 22.7307 13.4435 22.7957 13.1404 22.7957C12.9023 22.7957 12.7074 22.7524 12.5559 22.6658C12.4043 22.5792 12.2744 22.4493 12.1878 22.276C12.1012 22.1028 12.0146 21.9296 11.9496 21.6915C11.8847 21.475 11.8414 21.2585 11.7764 21.0636L10.1743 14.6333C10.0877 14.2652 10.0227 13.9838 10.0227 13.7673C10.0227 13.5291 10.1093 13.3126 10.2825 13.1394C10.4557 12.9662 10.6722 12.8796 10.932 12.8796C11.2785 12.8796 11.5166 12.9878 11.6465 13.226C11.7764 13.4425 11.8847 13.7889 11.9713 14.2219L13.227 19.8078L14.6343 14.5683C14.7426 14.157 14.8292 13.8539 14.9158 13.659C15.0024 13.4425 15.1323 13.2693 15.3272 13.1177C15.522 12.9662 15.7602 12.8796 16.085 12.8796C16.4097 12.8796 16.6695 12.9662 16.8427 13.1177C17.0159 13.2693 17.1458 13.4425 17.2108 13.6373C17.2757 13.8322 17.384 14.1353 17.4923 14.5683L18.8996 19.8078L20.1553 14.2219C20.2203 13.9405 20.2636 13.7023 20.3285 13.5291C20.3935 13.3559 20.4801 13.226 20.61 13.0744C20.7399 12.9445 20.9347 12.8796 21.1946 12.8796C21.4544 12.8796 21.6709 12.9662 21.8441 13.1394C22.0173 13.3126 22.1039 13.5074 22.1039 13.7673C22.1039 13.9405 22.0606 14.2219 21.9523 14.6333L20.3502 21.0852C20.2419 21.5183 20.1553 21.843 20.0687 22.0379C20.0038 22.2327 19.8739 22.4276 19.7006 22.5792C19.5274 22.7307 19.2893 22.8173 18.9645 22.8173C18.6614 22.8173 18.4232 22.7524 18.25 22.6008C18.0768 22.4493 17.9469 22.276 17.882 22.1028C17.817 21.908 17.7088 21.6049 17.5789 21.1502L17.6222 21.1286Z" fill="white"/>
<path d="M25.3299 14.5467V16.9066H29.3569C29.6601 16.9066 29.8766 16.9716 30.0281 17.1015C30.1797 17.2314 30.2446 17.4046 30.2446 17.6211C30.2446 17.8376 30.1797 18.0108 30.0281 18.1624C29.8766 18.2923 29.6601 18.3789 29.3569 18.3789H25.3299V21.1069H29.8549C30.158 21.1069 30.3962 21.1719 30.5477 21.3234C30.6993 21.475 30.7859 21.6482 30.7859 21.8863C30.7859 22.1245 30.6993 22.2977 30.5477 22.4276C30.3962 22.5792 30.158 22.6441 29.8549 22.6441H24.5937C24.1607 22.6441 23.8576 22.5575 23.6844 22.3627C23.5112 22.1678 23.4029 21.8647 23.4029 21.4533V14.2436C23.4029 13.9621 23.4462 13.7456 23.5329 13.5507C23.6195 13.3775 23.7494 13.2476 23.9226 13.161C24.0958 13.0744 24.3339 13.0311 24.5937 13.0311H29.725C30.0281 13.0311 30.2663 13.0961 30.4178 13.2476C30.5694 13.3775 30.6343 13.5724 30.6343 13.7889C30.6343 14.0054 30.5694 14.2003 30.4178 14.3302C30.2663 14.4601 30.0281 14.5467 29.725 14.5467H25.3299Z" fill="white"/>
<path d="M35.5491 21.1935L34.0119 15.088V21.6915C34.0119 22.0595 33.9253 22.341 33.7737 22.5142C33.6005 22.6874 33.384 22.7957 33.1242 22.7957C32.8644 22.7957 32.6479 22.7091 32.4747 22.5142C32.3015 22.341 32.2365 22.0595 32.2365 21.6915V14.1137C32.2365 13.7023 32.3448 13.4208 32.5613 13.2693C32.7778 13.1177 33.0809 13.0528 33.449 13.0528H34.0552C34.4232 13.0528 34.6831 13.0961 34.8346 13.161C35.0078 13.226 35.1161 13.3342 35.2027 13.5074C35.2893 13.6806 35.3759 13.9621 35.4625 14.3302L36.8481 19.5697L38.2338 14.3302C38.3421 13.9405 38.4287 13.6806 38.4936 13.5074C38.5802 13.3342 38.6885 13.226 38.8617 13.161C39.0349 13.0961 39.2947 13.0528 39.6411 13.0528H40.2473C40.6154 13.0528 40.9185 13.1177 41.135 13.2693C41.3515 13.4208 41.4598 13.7023 41.4598 14.1137V21.6915C41.4598 22.0595 41.3732 22.341 41.2216 22.5142C41.0484 22.6874 40.8319 22.7957 40.5721 22.7957C40.3123 22.7957 40.0958 22.7091 39.9442 22.5142C39.771 22.341 39.7061 22.0595 39.7061 21.6915V15.088L38.1688 21.1935C38.0606 21.5832 37.9956 21.8863 37.9307 22.0595C37.8657 22.2327 37.7575 22.406 37.5843 22.5575C37.4111 22.7091 37.1729 22.7957 36.8698 22.7957C36.6533 22.7957 36.4584 22.7524 36.2852 22.6441C36.1337 22.5359 36.0038 22.4276 35.9172 22.276C35.8306 22.1245 35.7656 21.9513 35.7006 21.7781C35.6573 21.5832 35.5924 21.41 35.5491 21.1935Z" fill="white"/>
<path d="M49.5789 21.5399L49.1242 20.3275H45.227L44.7724 21.5616C44.5992 22.0379 44.4476 22.3627 44.3177 22.5359C44.1878 22.7091 43.9929 22.7957 43.6898 22.7957C43.4517 22.7957 43.2351 22.7091 43.0403 22.5359C42.8454 22.3627 42.7588 22.1461 42.7588 21.9296C42.7588 21.7997 42.7805 21.6698 42.8238 21.5183C42.8671 21.3884 42.932 21.1935 43.0403 20.9337L45.4868 14.7199C45.5518 14.5467 45.6384 14.3302 45.7467 14.0704C45.8549 13.8106 45.9415 13.6157 46.0498 13.4425C46.158 13.2693 46.3096 13.1394 46.4828 13.0311C46.656 12.9229 46.8941 12.8796 47.154 12.8796C47.4138 12.8796 47.6519 12.9229 47.8251 13.0311C47.9983 13.1394 48.1499 13.2693 48.2582 13.4208C48.3664 13.5724 48.453 13.7456 48.5396 13.9405C48.6262 14.1353 48.7128 14.3735 48.8211 14.6766L51.3326 20.8471C51.5274 21.3234 51.6357 21.6698 51.6357 21.8647C51.6357 22.0595 51.5491 22.2977 51.3542 22.4709C51.1594 22.6658 50.9429 22.7524 50.6831 22.7524C50.5315 22.7524 50.4016 22.7307 50.2933 22.6658C50.1851 22.6008 50.0985 22.5359 50.0119 22.4493C49.9469 22.3627 49.8603 22.2111 49.7737 22.0162C49.6871 21.8214 49.6222 21.6482 49.5572 21.4966L49.5789 21.5399ZM45.7467 18.8769H48.6046L47.154 14.9147L45.7467 18.8769Z" fill="white"/>
<path d="M61.0538 22.6225H56.5504C55.9009 22.6225 55.338 22.5575 54.8617 22.4493C54.3853 22.3194 53.974 22.1028 53.5843 21.7564C52.5883 20.912 52.0904 19.613 52.0904 17.8593C52.0904 17.2747 52.1337 16.7551 52.2419 16.2788C52.3502 15.8024 52.5017 15.3694 52.6966 15.0014C52.9131 14.6116 53.1729 14.2869 53.4977 13.9838C53.7575 13.7456 54.0389 13.5724 54.342 13.4208C54.6452 13.2909 54.9699 13.1827 55.3163 13.1177C55.6628 13.0528 56.0525 13.0311 56.5071 13.0311H61.0105C61.3569 13.0311 61.6384 13.0744 61.8116 13.1827C61.9848 13.2909 62.1147 13.4425 62.158 13.6373C62.223 13.8322 62.2446 14.092 62.2446 14.3951V21.41C62.2446 21.8214 62.158 22.1245 61.9632 22.3194C61.7683 22.5142 61.4652 22.6008 61.0538 22.6008V22.6225ZM60.296 21.0853V14.59H56.8535C56.5288 14.59 56.269 14.59 56.0958 14.6116C55.9226 14.6116 55.7277 14.6766 55.5328 14.7415C55.338 14.8065 55.1648 14.9147 55.0132 15.0447C54.3637 15.5859 54.0389 16.5386 54.0389 17.8809C54.0389 18.8336 54.1905 19.5264 54.472 20.0027C54.7534 20.479 55.0998 20.7821 55.5328 20.8904C55.9442 21.0203 58.4341 21.0853 59.0186 21.0853H60.296Z" fill="white"/>
</svg>
