<svg width="70" height="32" viewBox="0 0 70 32" fill="none" xmlns="http://www.w3.org/2000/svg">
<path d="M14.5527 21.9834H16.3593C17.0057 21.9834 17.5195 21.4696 17.5195 20.8232V20.5912C17.5195 19.9448 17.0057 19.4309 16.3593 19.4309H14.5527C13.956 19.4309 13.4753 18.9503 13.4753 18.3536V11.1602C13.4753 10.5138 12.945 10 12.3151 10H12.0831C11.4367 10 10.9229 10.5138 10.9229 11.1602V18.3536C10.9229 20.3425 12.5472 21.9834 14.5527 21.9834Z" fill="white"/>
<path d="M36.9947 12.5525H38.2212V20.8232C38.2212 21.4696 38.735 21.9834 39.3814 21.9834H39.6135C40.2599 21.9834 40.7737 21.4696 40.7737 20.8232V12.5525H42.0002C42.6466 12.5525 43.1604 12.0387 43.1604 11.3923V11.1602C43.1604 10.5138 42.6466 10 42.0002 10H36.9947C36.3483 10 35.8345 10.5138 35.8345 11.1602V11.3923C35.8345 12.0387 36.3483 12.5525 36.9947 12.5525Z" fill="white"/>
<path d="M45.2654 21.9669C45.2654 21.9669 45.4146 21.9834 45.4974 21.9834H50.188C50.8345 21.9834 51.3483 21.4696 51.3483 20.8232V20.5912C51.3483 19.9448 50.8345 19.4309 50.188 19.4309H46.8897V17.2762H49.4588C50.1052 17.2762 50.619 16.7624 50.619 16.116V15.884C50.619 15.2376 50.1052 14.7238 49.4588 14.7238H46.8897V12.5359H50.188C50.8345 12.5359 51.3483 12.0221 51.3483 11.3757V11.1436C51.3483 10.5138 50.8179 10 50.1715 10H45.4809C44.8345 10 44.3206 10.5138 44.3206 11.1602V20.8232C44.3206 21.3867 44.7184 21.8508 45.2488 21.9669H45.2654Z" fill="white"/>
<path d="M20.1715 21.9834H20.4035C21.0499 21.9834 21.5637 21.4696 21.5637 20.8232V18.8343H23.7184V20.8232C23.7184 21.4696 24.2322 21.9834 24.8787 21.9834H25.1107C25.7571 21.9834 26.2709 21.4696 26.2709 20.8232V13.6298C26.2709 11.5414 24.4809 9.85083 22.3427 10.0166C20.4532 10.1657 19.0113 11.8066 19.0113 13.7127V20.8398C19.0113 21.4862 19.5251 22 20.1715 22V21.9834ZM21.5637 13.6464C21.5637 13.116 21.945 12.6354 22.4753 12.5525C23.1383 12.453 23.7184 12.9669 23.7184 13.6133V16.2652H21.5637V13.6464Z" fill="white"/>
<path d="M31.6908 12.5525H33.4974C34.1438 12.5525 34.6577 12.0387 34.6577 11.3923V11.1602C34.6577 10.5138 34.1438 10 33.4974 10H31.6908C29.7019 10 28.061 11.6243 28.061 13.6298V20.8232C28.061 21.4696 28.5748 21.9834 29.2212 21.9834H29.4532C30.0996 21.9834 30.6135 21.4696 30.6135 20.8232V17.5912H33.4974C34.1438 17.5912 34.6577 17.0773 34.6577 16.4309V16.1989C34.6577 15.5525 34.1438 15.0387 33.4974 15.0387H30.6135V13.6133C30.6135 13.0166 31.0941 12.5359 31.6908 12.5359V12.5525Z" fill="white"/>
<path d="M56.4532 21.9834H58.2599C58.9063 21.9834 59.4201 21.4696 59.4201 20.8232V20.5912C59.4201 19.9448 58.9063 19.4309 58.2599 19.4309H56.4532C55.8566 19.4309 55.3759 18.9503 55.3759 18.3536V11.1602C55.3759 10.5138 54.8621 10 54.2157 10H53.9836C53.3372 10 52.8234 10.5138 52.8234 11.1602V18.3536C52.8234 20.3425 54.4477 21.9834 56.4532 21.9834Z" fill="white"/>
</svg>
