<svg width="96" height="34" viewBox="0 0 96 34" fill="none" xmlns="http://www.w3.org/2000/svg">
<path d="M53.9744 21.1966L55.2831 23.0987V21.1966H55.51V23.4477H55.2657L53.957 21.5456H53.9395V23.4477H53.7301V21.1966H53.9744Z" fill="white"/>
<path d="M58.1274 21.1966V21.3711H56.7838V22.1913H58.0402V22.3658H56.7838V23.2557H58.1449V23.4477H56.5744V21.1966H58.1274Z" fill="white"/>
<path d="M60.6053 21.1966V21.3711H59.82V23.4477H59.6106V21.3711H58.8254V21.1966H60.6053Z" fill="white"/>
<path d="M61.4429 21.1966L61.9489 23.1685H61.9664L62.5073 21.1966H62.7865L63.3274 23.1685H63.3449L63.8509 21.1966H64.0603L63.4496 23.4477H63.2227L62.6469 21.4235L62.071 23.4477H61.8442L61.216 21.1966H61.4429Z" fill="white"/>
<path d="M64.863 21.8772C64.8979 21.7376 64.9677 21.6154 65.0549 21.5107C65.1422 21.406 65.2469 21.3188 65.3865 21.249C65.5261 21.1792 65.6831 21.1443 65.8576 21.1443C66.0321 21.1443 66.1892 21.1792 66.3288 21.249C66.4684 21.3188 66.5731 21.406 66.6603 21.5107C66.7476 21.6154 66.8174 21.7376 66.8523 21.8772C66.9046 22.0168 66.9221 22.1738 66.9221 22.3134C66.9221 22.453 66.9046 22.6101 66.8523 22.7671C66.7999 22.9067 66.7476 23.0289 66.6603 23.1336C66.5731 23.2383 66.4684 23.3255 66.3288 23.3953C66.1892 23.4651 66.0496 23.5 65.8576 23.5C65.6657 23.5 65.5261 23.4651 65.3865 23.3953C65.2469 23.3255 65.1422 23.2383 65.0549 23.1336C64.9677 23.0289 64.8979 22.9067 64.863 22.7671C64.8106 22.6275 64.7932 22.4705 64.7932 22.3134C64.7932 22.1564 64.8106 22.0168 64.863 21.8772ZM65.0549 22.6799C65.0898 22.802 65.1422 22.9067 65.212 22.994C65.2818 23.0812 65.369 23.1685 65.4737 23.2208C65.5784 23.2732 65.718 23.3081 65.8576 23.3081C65.9972 23.3081 66.1368 23.2732 66.2415 23.2208C66.3462 23.1685 66.4335 23.0812 66.5033 22.994C66.5731 22.9067 66.6254 22.802 66.6603 22.6799C66.6952 22.5577 66.7127 22.4356 66.7127 22.3134C66.7127 22.1913 66.7127 22.0691 66.6603 21.947C66.6254 21.8248 66.5731 21.7201 66.5033 21.6329C66.4335 21.5456 66.3462 21.4584 66.2415 21.406C66.1368 21.3537 66.0147 21.3188 65.8576 21.3188C65.7006 21.3188 65.5784 21.3537 65.4737 21.406C65.369 21.4584 65.2818 21.5456 65.212 21.6329C65.1422 21.7201 65.0898 21.8248 65.0549 21.947C65.02 22.0691 65.0026 22.1913 65.0026 22.3134C65.0026 22.4356 65.0026 22.5577 65.0549 22.6799Z" fill="white"/>
<path d="M68.9113 21.1966C68.9986 21.1966 69.0858 21.1966 69.1731 21.2315C69.2603 21.249 69.3301 21.2839 69.3825 21.3362C69.4523 21.3886 69.4872 21.4409 69.5395 21.5107C69.5744 21.5805 69.5919 21.6678 69.5919 21.7725C69.5919 21.9121 69.557 22.0342 69.4872 22.1389C69.4174 22.2436 69.3127 22.3134 69.1556 22.3483C69.1556 22.3483 69.2952 22.3832 69.3301 22.4181C69.3825 22.453 69.4174 22.4879 69.4523 22.5228C69.4872 22.5752 69.5046 22.6101 69.5221 22.6799C69.5221 22.7322 69.5395 22.802 69.557 22.8718C69.557 22.9067 69.557 22.9591 69.557 23.0114C69.557 23.0638 69.557 23.1161 69.557 23.1685C69.557 23.2208 69.557 23.2732 69.5919 23.3255C69.5919 23.3779 69.6268 23.4128 69.6442 23.4477H69.3999C69.3999 23.4477 69.3825 23.3953 69.365 23.3779C69.365 23.343 69.365 23.3081 69.365 23.2906C69.365 23.2557 69.365 23.2208 69.365 23.1859C69.365 23.151 69.365 23.1336 69.365 23.0987C69.365 23.0114 69.365 22.9416 69.3476 22.8544C69.3476 22.7671 69.3127 22.6973 69.2952 22.645C69.2778 22.5926 69.2254 22.5403 69.1556 22.4879C69.1033 22.453 69.016 22.4356 68.9113 22.4356H68.0912V23.4302H67.8818V21.1792H68.9113V21.1966ZM68.9113 22.2611C68.9113 22.2611 69.0335 22.2611 69.1033 22.2262C69.1556 22.2087 69.208 22.1738 69.2603 22.1389C69.3127 22.104 69.3476 22.0517 69.365 21.9993C69.3999 21.947 69.3999 21.8772 69.3999 21.8074C69.3999 21.6678 69.365 21.5631 69.2778 21.4758C69.1905 21.3886 69.0684 21.3537 68.9113 21.3537H68.1086V22.2436H68.9113V22.2611Z" fill="white"/>
<path d="M70.8308 21.1966V22.4007L72.1395 21.1966H72.4187L71.4241 22.1215L72.4711 23.4477H72.1919L71.2496 22.2785L70.8308 22.6799V23.4477H70.6039V21.1966H70.8308Z" fill="white"/>
<path d="M73.4308 22.994C73.4308 22.994 73.518 23.1336 73.5878 23.1859C73.6576 23.2383 73.7274 23.2732 73.8321 23.2906C73.9194 23.3081 74.0241 23.3255 74.1288 23.3255C74.1811 23.3255 74.2509 23.3255 74.3207 23.3081C74.3905 23.3081 74.4603 23.2732 74.5127 23.2208C74.565 23.1859 74.6174 23.1336 74.6697 23.0812C74.7046 23.0289 74.7221 22.9591 74.7221 22.8718C74.7221 22.802 74.7221 22.7497 74.6872 22.7148C74.6523 22.6624 74.6174 22.6275 74.5825 22.5926C74.5301 22.5577 74.4952 22.5403 74.4254 22.5228C74.3731 22.5054 74.3207 22.4879 74.2684 22.4705L73.7623 22.3483C73.7623 22.3483 73.6402 22.3134 73.5704 22.2785C73.5006 22.2611 73.4482 22.2262 73.4133 22.1738C73.361 22.1389 73.3261 22.0866 73.3086 22.0168C73.2737 21.947 73.2737 21.8772 73.2737 21.7899C73.2737 21.7376 73.2737 21.6678 73.3086 21.598C73.3261 21.5282 73.361 21.4584 73.4308 21.3886C73.4831 21.3188 73.5704 21.2664 73.6751 21.2141C73.7798 21.1617 73.9019 21.1443 74.059 21.1443C74.1637 21.1443 74.2684 21.1443 74.3731 21.1792C74.4778 21.2141 74.565 21.249 74.6348 21.3188C74.7046 21.3711 74.7744 21.4584 74.8093 21.5456C74.8617 21.6329 74.8791 21.7376 74.8791 21.8423H74.6697C74.6697 21.8423 74.6523 21.6852 74.6174 21.6154C74.5825 21.5456 74.5301 21.4933 74.4778 21.4584C74.4254 21.4235 74.3556 21.3886 74.2858 21.3537C74.216 21.3362 74.1288 21.3188 74.059 21.3188C73.9892 21.3188 73.9194 21.3188 73.8496 21.3362C73.7798 21.3362 73.7274 21.3711 73.6751 21.406C73.6227 21.4409 73.5878 21.4933 73.5529 21.5456C73.518 21.598 73.5006 21.6678 73.5006 21.755C73.5006 21.8074 73.5006 21.8597 73.5355 21.8946C73.5529 21.9295 73.5704 21.9644 73.6053 21.9993C73.6402 22.0342 73.6751 22.0517 73.71 22.0691C73.7449 22.0866 73.7972 22.104 73.8496 22.104L74.408 22.2436C74.408 22.2436 74.565 22.296 74.6348 22.3134C74.7046 22.3483 74.7744 22.3832 74.8268 22.4181C74.8791 22.4705 74.9314 22.5228 74.9489 22.5926C74.9838 22.6624 75.0012 22.7322 75.0012 22.8369C75.0012 22.8544 75.0012 22.8893 75.0012 22.9416C75.0012 22.9765 74.9838 23.0289 74.9664 23.0812C74.9489 23.1336 74.914 23.1685 74.8791 23.2208C74.8442 23.2732 74.7919 23.3081 74.7221 23.3604C74.6523 23.3953 74.5825 23.4302 74.4778 23.4477C74.3905 23.4651 74.2684 23.4825 74.1288 23.4825C73.9892 23.4825 73.867 23.4826 73.7623 23.4302C73.6402 23.3953 73.5529 23.3604 73.4657 23.2906C73.3784 23.2208 73.3261 23.151 73.2737 23.0463C73.2388 22.9416 73.2039 22.8369 73.2214 22.6973H73.4308C73.4308 22.8195 73.4308 22.9067 73.4831 22.994" fill="white"/>
<path d="M78.2818 21.1966L79.1717 23.4477H78.9449L78.6657 22.7497H77.6361L77.357 23.4477H77.1301L78.0375 21.1966H78.2818ZM78.5959 22.5752L78.1596 21.4235L77.7059 22.5752H78.5959Z" fill="white"/>
<path d="M80.1489 22.994C80.1489 22.994 80.2361 23.1336 80.3059 23.1859C80.3757 23.2383 80.4455 23.2732 80.5328 23.2906C80.62 23.3081 80.7247 23.3255 80.8294 23.3255C80.8818 23.3255 80.9516 23.3255 81.0214 23.3081C81.0912 23.2906 81.161 23.2732 81.2133 23.2208C81.2657 23.1859 81.318 23.1336 81.3704 23.0812C81.4053 23.0289 81.4227 22.9591 81.4227 22.8718C81.4227 22.802 81.4227 22.7497 81.3878 22.7148C81.3529 22.6624 81.318 22.6275 81.2831 22.5926C81.2308 22.5577 81.1784 22.5403 81.1261 22.5228C81.0737 22.5054 81.0214 22.4879 80.969 22.4705L80.463 22.3483C80.463 22.3483 80.3408 22.3134 80.271 22.2785C80.2012 22.2611 80.1489 22.2262 80.114 22.1738C80.0617 22.1389 80.0268 22.0866 80.0093 22.0168C79.9744 21.947 79.9744 21.8772 79.9744 21.7899C79.9744 21.7376 79.9744 21.6678 80.0093 21.598C80.0268 21.5282 80.0617 21.4584 80.1315 21.3886C80.1838 21.3188 80.271 21.2664 80.3757 21.2141C80.4804 21.1617 80.6026 21.1443 80.7596 21.1443C80.8643 21.1443 80.969 21.1443 81.0737 21.1792C81.1784 21.2141 81.2657 21.249 81.3355 21.3188C81.4053 21.3711 81.4751 21.4584 81.51 21.5456C81.5623 21.6329 81.5798 21.7376 81.5798 21.8423H81.3704C81.3704 21.8423 81.3529 21.6852 81.318 21.6154C81.2831 21.5456 81.2308 21.4933 81.1784 21.4584C81.1261 21.4235 81.0563 21.3886 80.9865 21.3537C80.9167 21.3188 80.8294 21.3188 80.7596 21.3188C80.6898 21.3188 80.62 21.3188 80.5502 21.3362C80.4804 21.3362 80.4281 21.3711 80.3757 21.406C80.3234 21.4409 80.2885 21.4933 80.2536 21.5456C80.2187 21.598 80.2013 21.6678 80.2013 21.755C80.2013 21.8074 80.2012 21.8597 80.2361 21.8946C80.2536 21.9295 80.271 21.9644 80.3059 21.9993C80.3408 22.0342 80.3757 22.0517 80.4106 22.0691C80.4455 22.0866 80.4979 22.104 80.5502 22.104L81.0912 22.2436C81.0912 22.2436 81.2482 22.296 81.318 22.3134C81.3878 22.3483 81.4576 22.3832 81.51 22.4181C81.5623 22.4705 81.5972 22.5228 81.6321 22.5926C81.667 22.6624 81.6845 22.7322 81.6845 22.8369C81.6845 22.8544 81.6845 22.8893 81.6845 22.9416C81.6845 22.9765 81.667 23.0289 81.6496 23.0812C81.6321 23.1336 81.5972 23.1685 81.5623 23.2208C81.5274 23.2732 81.4751 23.3081 81.4053 23.3604C81.3355 23.3953 81.2657 23.4302 81.161 23.4477C81.0737 23.4651 80.9516 23.4825 80.812 23.4825C80.6724 23.4825 80.5502 23.4826 80.4455 23.4302C80.3409 23.3953 80.2361 23.3604 80.1489 23.2906C80.0617 23.2208 80.0093 23.151 79.957 23.0463C79.9221 22.9416 79.8872 22.8369 79.9046 22.6973H80.114C80.114 22.8195 80.114 22.9067 80.1664 22.994" fill="white"/>
<path d="M82.8187 21.1966H82.6093V23.4477H82.8187V21.1966Z" fill="white"/>
<path d="M84.8254 21.1966L85.7153 23.4477H85.4885L85.2093 22.7497H84.1798L83.9006 23.4477H83.6737L84.5811 21.1966H84.8254ZM85.1395 22.5752L84.7033 21.4235L84.2496 22.5752H85.1395Z" fill="white"/>
<path d="M10.42 19.2772V10.5698H14.3113C16.0912 10.5698 16.9811 11.3899 16.9811 13.0128C16.9811 14.7926 15.7596 15.857 13.3341 16.2235L13.1073 14.7926C14.5731 14.5309 15.3059 13.955 15.3059 13.0651C15.3059 12.3497 14.9395 11.9832 14.2241 11.9832H12.0254V19.2597H10.42V19.2772Z" fill="white"/>
<path d="M20.1221 10.5698V17.8812H23.5771V19.2772H18.5167V10.5698H20.1221Z" fill="white"/>
<path d="M25.5838 15.857V10.5872H27.1892V15.8745C27.1892 17.2705 27.9046 17.951 29.318 17.951C30.7315 17.951 31.4469 17.253 31.4469 15.8745V10.5872H33.0523V15.8745C33.0523 18.1953 31.8133 19.347 29.318 19.347C26.8227 19.347 25.5838 18.1953 25.5838 15.8745" fill="white"/>
<path d="M35.0939 18.9107V17.445C35.9664 17.7765 36.9435 17.9336 38.0429 17.9336C39.369 17.9336 40.0496 17.4799 40.0496 16.5899C40.0496 15.9443 39.6308 15.6128 38.8281 15.6128H37.467C35.6872 15.6128 34.7972 14.7926 34.7972 13.1698C34.7972 11.3899 36.071 10.5 38.6012 10.5C39.5784 10.5 40.5033 10.6396 41.3757 10.9188V12.3846C40.5033 12.053 39.5784 11.896 38.6012 11.896C37.1355 11.896 36.42 12.3148 36.42 13.1698C36.42 13.8154 36.769 14.147 37.4845 14.147H38.8455C40.7476 14.147 41.6898 14.9671 41.6898 16.5899C41.6898 18.4221 40.4858 19.3295 38.0778 19.3295C36.9784 19.3295 36.0013 19.1899 35.1288 18.9107" fill="white"/>
<path d="M44.1677 19.2772V10.5698H45.8254L48.7744 17.1832L51.671 10.5698H53.2764V19.2772H51.7932V13.2221L49.4375 19.2772H48.059L45.6509 13.2221V19.2772H44.1677Z" fill="white"/>
<path d="M61.4778 10.5698V11.9658H57.1328V14.1644H61.2684V15.5953H57.1153V17.8812H61.565V19.2772H55.5274V10.5698H61.4778Z" fill="white"/>
<path d="M63.467 19.2772V10.5698H66.8697C69.7489 10.5698 71.1972 11.9483 71.1972 14.6879C71.1972 17.7416 69.7489 19.2772 66.8697 19.2772H63.467ZM66.8697 17.8812C68.667 17.8812 69.5744 16.8168 69.5744 14.6879C69.5744 12.8732 68.667 11.9658 66.8697 11.9658H65.0724V17.8638H66.8697V17.8812Z" fill="white"/>
<path d="M74.5301 10.5698H72.9247V19.2772H74.5301V10.5698Z" fill="white"/>
<path d="M77.6711 19.2772H76.0308L79.7127 10.5698H81.4576L85.2268 19.2772H83.4818L82.5046 16.904H79.608L80.1664 15.5081H81.9113L80.5502 12.245L77.6711 19.2772Z" fill="white"/>
</svg>
