<svg width="101" height="32" viewBox="0 0 101 32" fill="none" xmlns="http://www.w3.org/2000/svg">
<path d="M41.5174 10.0128H38.0009V22H41.5174V10.0128Z" fill="white"/>
<path d="M78.2041 18.4706V10H74.6875V15.9936C74.6875 17.3604 73.5773 18.4706 72.2105 18.4706C70.8436 18.4706 69.7335 17.3604 69.7335 15.9936V10H66.2169V18.4706C66.2169 20.415 67.7891 21.9872 69.7335 21.9872H74.6939C76.6383 21.9872 78.2105 20.415 78.2105 18.4706H78.2041Z" fill="white"/>
<path d="M54.2233 14.2481C54.2233 11.9059 52.3303 10.0128 49.988 10.0128H42.2362V22H45.7527V18.4834H49.988C52.3303 18.4834 54.2233 16.584 54.2233 14.2481ZM49.988 14.9668H45.7527V13.5294H49.988C50.3859 13.5294 50.7067 13.8503 50.7067 14.2481C50.7067 14.646 50.3859 14.9668 49.988 14.9668Z" fill="white"/>
<path d="M33.7592 18.2267L29.9281 10.0128H24.6533V18.323L26.3666 22H28.1699V13.7797L32.0009 22H37.2822V10.0128H33.7592V18.2267Z" fill="white"/>
<path d="M19.9816 10.0128H16.465L10.8757 22H18.0757L19.7185 18.4834H16.0351L18.2233 13.7797L22.0543 22H25.5773L19.9816 10.0128Z" fill="white"/>
<path d="M82.7987 14.2353C82.5998 14.2353 82.4394 14.0749 82.4394 13.8759C82.4394 13.677 82.5998 13.5166 82.7987 13.5166H89.2736L90.9164 10H82.8051C80.6618 10 78.9292 11.7326 78.9292 13.8759C78.9292 16.0193 80.6618 17.7519 82.8051 17.7519H87.0404C87.2394 17.7519 87.3998 17.9123 87.3998 18.1112C87.3998 18.3102 87.2394 18.4706 87.0404 18.4706H78.9292C78.9292 19.9337 78.1848 21.2235 77.0554 21.9872H87.0469C89.1902 21.9872 90.9228 20.2545 90.9228 18.1112C90.9228 15.9679 89.1902 14.2353 87.0469 14.2353H82.7987Z" fill="white"/>
<path d="M65.4918 18.4834H57.7399V10.0128H54.2233V11.6813C54.6789 12.4321 54.942 13.3112 54.942 14.2481C54.942 15.185 54.6789 16.0706 54.2233 16.815V22H67.3848C66.249 21.2428 65.4982 19.9465 65.4918 18.4834Z" fill="white"/>
</svg>
