<svg width="73" height="34" viewBox="0 0 73 34" fill="none" xmlns="http://www.w3.org/2000/svg">
<path d="M15.3432 14.1403C15.555 14.0055 15.7283 13.8514 15.8824 13.6781C16.0364 13.5048 16.152 13.293 16.229 13.0619C16.306 12.8308 16.3638 12.5612 16.3638 12.2724C16.3638 11.945 16.306 11.6561 16.2097 11.4058C16.1135 11.1554 15.9594 10.9243 15.7668 10.7125C15.5357 10.4814 15.2469 10.3081 14.9003 10.1926C14.5536 10.077 14.1492 10 13.7063 10H10.5674V17.0481H11.8961V14.6217H13.3404L15.0351 17.0096L16.6142 17.0289L14.7269 14.3714C14.9388 14.3136 15.1506 14.2173 15.3239 14.1018L15.3432 14.1403ZM11.8961 11.2325H13.61C14.0529 11.2325 14.3996 11.3287 14.6307 11.5213C14.8617 11.6946 14.9965 11.9835 14.9965 12.3301C14.9965 12.696 14.881 12.9464 14.6307 13.1582C14.3803 13.3508 14.0529 13.4663 13.6293 13.4663H11.8961V11.2325Z" fill="white"/>
<path d="M24.163 11.0591C23.8549 10.7318 23.4697 10.4814 23.0268 10.2889C22.5839 10.0963 22.0832 10 21.5633 10C21.0433 10 20.5426 10.0963 20.0997 10.2889C19.6568 10.4814 19.2716 10.7318 18.9443 11.0591C18.6169 11.3865 18.3666 11.7717 18.1932 12.1953C18.0199 12.619 17.9236 13.1004 17.9236 13.5818C17.9236 14.0825 18.0199 14.5447 18.1932 14.9876C18.3666 15.4113 18.6169 15.7964 18.9443 16.1238C19.2524 16.4512 19.6375 16.7015 20.0805 16.8941C20.5234 17.0867 21.0241 17.1829 21.544 17.1829C22.0639 17.1829 22.5646 17.0867 23.0075 16.8941C23.4505 16.7015 23.8356 16.4512 24.163 16.1238C24.4904 15.7964 24.7407 15.4113 24.914 14.9876C25.0873 14.564 25.1836 14.0825 25.1836 13.6011C25.1836 13.1004 25.0873 12.6382 24.914 12.1953C24.7407 11.7524 24.4904 11.3865 24.163 11.0591ZM21.5633 15.9697C21.2359 15.9697 20.9278 15.912 20.6582 15.7772C20.3886 15.6424 20.1382 15.4691 19.9456 15.2765C19.7531 15.0646 19.599 14.8143 19.4835 14.5254C19.3679 14.2366 19.3102 13.9285 19.3102 13.6011C19.3102 13.2545 19.3679 12.9464 19.4835 12.6575C19.599 12.3686 19.7531 12.1183 19.9456 11.9065C20.1382 11.6946 20.3693 11.5213 20.6582 11.4058C20.9278 11.2902 21.2359 11.2132 21.5633 11.2132C21.8906 11.2132 22.1987 11.271 22.4683 11.4058C22.7379 11.5406 22.9883 11.6946 23.1809 11.9257C23.3734 12.1376 23.5275 12.3879 23.643 12.6768C23.7586 12.9656 23.8163 13.2737 23.8163 13.6011C23.8163 13.9477 23.7586 14.2558 23.643 14.5447C23.5275 14.8336 23.3734 15.0839 23.1809 15.2957C22.9883 15.5076 22.7379 15.6809 22.4683 15.7964C22.1987 15.912 21.8906 15.989 21.5633 15.989V15.9697Z" fill="white"/>
<path d="M33.8301 15.0646L32.1932 10.1348V10.0963H31.0956L29.4587 15.0646L27.8604 10.1155H26.4353L28.8617 17.1059H29.9787L31.6155 12.3109L33.2331 17.0674L33.2524 17.1059H34.3693L36.7572 10.1926L36.7957 10.1155H35.4092L33.8301 15.0646Z" fill="white"/>
<path d="M44.306 11.0591C43.9979 10.7318 43.6128 10.4814 43.1699 10.2889C42.7269 10.0963 42.2263 10 41.7063 10C41.1864 10 40.6857 10.0963 40.2428 10.2889C39.7998 10.4814 39.4147 10.7318 39.0873 11.0591C38.76 11.3865 38.5096 11.7717 38.3363 12.1953C38.163 12.619 38.0667 13.1004 38.0667 13.5818C38.0667 14.0825 38.163 14.5447 38.3363 14.9876C38.5096 15.4113 38.76 15.7964 39.0873 16.1238C39.3954 16.4512 39.7806 16.7015 40.2235 16.8941C40.6664 17.0867 41.1671 17.1829 41.687 17.1829C42.207 17.1829 42.7077 17.0867 43.1506 16.8941C43.5935 16.7015 43.9787 16.4512 44.306 16.1238C44.6334 15.7964 44.8837 15.4113 45.0571 14.9876C45.2304 14.564 45.3267 14.0825 45.3267 13.6011C45.3267 13.1004 45.2304 12.6382 45.0571 12.1953C44.8837 11.7717 44.6334 11.3865 44.306 11.0591ZM41.7063 15.9697C41.3789 15.9697 41.0708 15.912 40.8012 15.7772C40.5316 15.6424 40.2813 15.4691 40.0887 15.2765C39.8961 15.0646 39.7228 14.8143 39.6265 14.5254C39.511 14.2366 39.4532 13.9285 39.4532 13.6011C39.4532 13.2545 39.511 12.9464 39.6265 12.6575C39.7421 12.3686 39.8961 12.1183 40.0887 11.9065C40.2813 11.6946 40.5124 11.5213 40.8012 11.4058C41.0708 11.2902 41.3789 11.2132 41.7063 11.2132C42.0337 11.2132 42.3418 11.271 42.6114 11.4058C42.881 11.5406 43.1313 11.6946 43.3239 11.9065C43.5165 12.1183 43.6705 12.3686 43.7861 12.6575C43.9016 12.9464 43.9594 13.2545 43.9594 13.5818C43.9594 13.9285 43.9016 14.2366 43.7861 14.5254C43.6705 14.8143 43.5165 15.0646 43.3239 15.2765C43.1313 15.4883 42.9003 15.6616 42.6114 15.7772C42.3418 15.8927 42.0337 15.9697 41.7063 15.9697Z" fill="white"/>
<path d="M53.0873 11.0591C52.7792 10.7318 52.3941 10.4814 51.9511 10.2889C51.5082 10.0963 51.0075 10 50.4876 10C49.9677 10 49.467 10.0963 49.0241 10.2889C48.5811 10.4814 48.196 10.7318 47.8686 11.0591C47.5412 11.3865 47.2909 11.7717 47.1176 12.1953C46.9443 12.619 46.848 13.1004 46.848 13.5818C46.848 14.0825 46.9443 14.5447 47.1176 14.9876C47.2909 15.4113 47.5412 15.7964 47.8686 16.1238C48.1767 16.4512 48.5619 16.7015 49.0048 16.8941C49.4477 17.0867 49.9291 17.1829 50.4683 17.1829C51.0075 17.1829 51.489 17.0867 51.9319 16.8941C52.3748 16.7015 52.76 16.4512 53.0873 16.1238C53.4147 15.7964 53.665 15.4113 53.8384 14.9876C54.0117 14.564 54.108 14.0825 54.108 13.6011C54.108 13.1004 54.0117 12.6382 53.8384 12.1953C53.665 11.7717 53.4147 11.3865 53.0873 11.0591ZM50.4876 15.9697C50.1602 15.9697 49.8521 15.912 49.5825 15.7772C49.3129 15.6424 49.0626 15.4691 48.87 15.2765C48.6774 15.0646 48.5234 14.8143 48.4078 14.5254C48.2923 14.2366 48.2345 13.9285 48.2345 13.6011C48.2345 13.2545 48.2923 12.9464 48.4078 12.6575C48.5234 12.3686 48.6774 12.1183 48.87 11.9065C49.0626 11.6946 49.2937 11.5213 49.5825 11.4058C49.8521 11.2902 50.1602 11.2132 50.4876 11.2132C50.815 11.2132 51.1231 11.271 51.3927 11.4058C51.6623 11.5406 51.9126 11.6946 52.1052 11.9065C52.2978 12.1183 52.4518 12.3686 52.5674 12.6575C52.6829 12.9464 52.7407 13.2545 52.7407 13.5818C52.7407 13.9285 52.6829 14.2366 52.5674 14.5254C52.4518 14.8143 52.2978 15.0646 52.1052 15.2765C51.9126 15.4883 51.6815 15.6616 51.3927 15.7772C51.1231 15.8927 50.815 15.9697 50.4876 15.9697Z" fill="white"/>
<path d="M60.6747 10.1155L60.7132 14.718L57.1313 10.1541L57.1121 10.1348H55.9181L55.9566 17.0674H57.2661L57.2276 12.3109L60.9058 17.0289L60.925 17.0481H62.0227L61.9842 10.0963L60.6747 10.1155Z" fill="white"/>
<path d="M12.4353 24C12.1657 24 11.9154 23.9422 11.6843 23.8459C11.4532 23.7497 11.2606 23.6149 11.0873 23.4415C10.914 23.2682 10.7985 23.0757 10.7022 22.8446C10.6059 22.6135 10.5674 22.3631 10.5674 22.1128C10.5674 21.8432 10.6059 21.5928 10.7022 21.3618C10.7985 21.1307 10.9333 20.9381 11.1066 20.7648C11.2799 20.5915 11.4725 20.4567 11.7036 20.3604C11.9346 20.2641 12.185 20.2063 12.4738 20.2063C12.6472 20.2063 12.8012 20.2063 12.936 20.2448C13.0708 20.2641 13.2056 20.3026 13.3212 20.3604C13.4367 20.4182 13.5523 20.4759 13.6485 20.5337C13.7448 20.6107 13.8411 20.6878 13.9181 20.7648L13.4945 21.2462C13.3404 21.1114 13.1864 20.9959 13.0323 20.9188C12.859 20.8418 12.6857 20.784 12.4738 20.784C12.3005 20.784 12.1272 20.8226 11.9924 20.8803C11.8384 20.9574 11.7228 21.0344 11.6073 21.1499C11.4917 21.2655 11.4147 21.4003 11.3569 21.5543C11.2992 21.7084 11.2606 21.8817 11.2606 22.055H11.2414C11.2414 22.2476 11.2799 22.4209 11.3377 22.575C11.3954 22.729 11.4725 22.8638 11.588 22.9986C11.7036 23.1142 11.8191 23.2105 11.9732 23.2875C12.1272 23.3645 12.2813 23.3838 12.4546 23.3838C12.6857 23.3838 12.8782 23.3453 13.0323 23.249C13.1864 23.1719 13.3597 23.0564 13.5137 22.9023L13.9374 23.326C13.8411 23.4223 13.7448 23.5186 13.6485 23.5956C13.5523 23.6726 13.4367 23.7497 13.3212 23.8074C13.2056 23.8652 13.0708 23.9037 12.936 23.9422C12.8012 23.9807 12.6279 23.9807 12.4738 23.9807L12.4353 24Z" fill="white"/>
<path d="M20.2345 24C19.9456 24 19.6953 23.9422 19.4642 23.8459C19.2331 23.7497 19.0213 23.6149 18.8672 23.4415C18.6939 23.2682 18.5591 23.0757 18.4821 22.8446C18.3858 22.6135 18.3473 22.3631 18.3473 22.1128C18.3473 21.8432 18.3858 21.5928 18.4821 21.3618C18.5784 21.1307 18.7132 20.9381 18.8865 20.7648C19.0598 20.5915 19.2716 20.4567 19.5027 20.3604C19.7338 20.2641 20.0034 20.2063 20.273 20.2063C20.5426 20.2063 20.8122 20.2641 21.0433 20.3604C21.2744 20.4567 21.4862 20.5915 21.6403 20.7648C21.8136 20.9381 21.9291 21.1307 22.0254 21.3618C22.1217 21.5928 22.1602 21.8432 22.1602 22.0935C22.1602 22.3631 22.1217 22.6135 22.0254 22.8446C21.9291 23.0757 21.7943 23.2682 21.621 23.4415C21.4477 23.6149 21.2551 23.7497 21.0048 23.8459C20.7737 23.9422 20.5041 24 20.2345 24ZM20.2345 23.403C20.4078 23.403 20.5811 23.3645 20.7352 23.3067C20.8893 23.2297 21.0241 23.1527 21.1203 23.0371C21.2359 22.9216 21.3129 22.7868 21.3707 22.6327C21.4285 22.4787 21.467 22.3054 21.467 22.132C21.467 21.9395 21.4477 21.7662 21.3707 21.6121C21.3129 21.458 21.2166 21.3232 21.1203 21.1884C21.0048 21.0729 20.87 20.9766 20.7352 20.8996C20.5811 20.8226 20.4078 20.8033 20.2345 20.8033C20.0612 20.8033 19.8879 20.8418 19.7338 20.8996C19.5798 20.9766 19.445 21.0536 19.3487 21.1692C19.2331 21.2847 19.1561 21.4195 19.0983 21.5736C19.0406 21.7276 19.002 21.901 19.002 22.0743C19.002 22.2668 19.0406 22.4402 19.0983 22.5942C19.1561 22.7483 19.2524 22.8831 19.3487 22.9986C19.445 23.1142 19.599 23.2105 19.7531 23.2875C19.9071 23.3645 20.0805 23.3838 20.2538 23.3838L20.2345 23.403Z" fill="white"/>
<path d="M26.6472 20.2641H27.3404L28.4573 21.9972L29.5743 20.2641H30.2675V23.9422H29.632V21.304L28.4766 23.0371H28.4573L27.3019 21.304V23.923H26.6664V20.2448L26.6472 20.2641Z" fill="white"/>
<path d="M35.0241 20.2641H36.4683C36.6802 20.2641 36.8727 20.3026 37.0461 20.3604C37.2194 20.4182 37.3734 20.4952 37.489 20.6107C37.6045 20.7263 37.7008 20.8418 37.7586 20.9959C37.8163 21.1499 37.8549 21.3232 37.8549 21.4966C37.8549 21.7084 37.8163 21.901 37.7393 22.055C37.6623 22.2091 37.566 22.3439 37.4312 22.4402C37.2964 22.5365 37.1423 22.6327 36.969 22.6713C36.7957 22.729 36.6031 22.7483 36.3913 22.7483H35.6595V23.923H35.0241V20.2448V20.2641ZM36.4106 22.1706C36.6609 22.1706 36.8535 22.1128 36.9883 21.978C37.1231 21.8624 37.2001 21.6891 37.2001 21.4966C37.2001 21.2655 37.1231 21.1114 36.9883 20.9959C36.8535 20.8803 36.6417 20.8226 36.4106 20.8226H35.6595V22.1513H36.4106V22.1706Z" fill="white"/>
<path d="M43.9401 20.2256H44.5371L46.1547 23.923H45.4615L45.0956 23.0371H43.3624L42.9773 23.923H42.3225L43.9401 20.2256ZM44.8645 22.4787L44.229 21.0151L43.5935 22.4787H44.8645Z" fill="white"/>
<path d="M50.8535 20.2641H51.4505L53.4147 22.8061V20.2641H54.0502V23.9422H53.511L51.489 21.3232V23.9422H50.8535V20.2641Z" fill="white"/>
<path d="M59.9044 22.4787L58.4408 20.2448H59.1919L60.2318 21.8817L61.2716 20.2448H62.0034L60.5399 22.4594V23.923H59.8851V22.4787H59.9044Z" fill="white"/>
</svg>
